<svg xmlns="http://www.w3.org/2000/svg" xmlns:xlink="http://www.w3.org/1999/xlink" width="500" zoomAndPan="magnify" viewBox="0 0 375 374.999991" height="500" preserveAspectRatio="xMidYMid meet" version="1.0"><defs><g/><clipPath id="ecc6fc22c2"><path d="M 91 90.875 L 276 90.875 L 276 284.375 L 91 284.375 Z M 91 90.875 " clip-rule="nonzero"/></clipPath></defs><g clip-path="url(#ecc6fc22c2)"><path fill="#000000" d="M 180.300781 277.652344 C 178.226562 277.558594 176.171875 277.152344 174.132812 276.773438 C 172.109375 276.277344 170.085938 275.839844 168.105469 275.210938 C 167.441406 274.578125 166.703125 274.183594 165.902344 273.898438 C 165.117188 273.589844 164.277344 273.363281 163.425781 273.136719 C 161.921875 272.765625 160.402344 272.214844 159.164062 271.003906 C 167.960938 274.078125 177.402344 275.769531 187.242188 275.769531 C 189.023438 275.769531 190.789062 275.695312 192.542969 275.589844 C 188.636719 277.410156 184.429688 277.960938 180.300781 277.652344 Z M 139.417969 261.574219 L 138.1875 260.902344 C 137.382812 260.441406 136.566406 259.964844 135.78125 259.453125 C 131.542969 256.546875 127.464844 253.34375 123.652344 249.800781 C 118.957031 245.484375 114.320312 240.792969 110.996094 235.191406 C 110.421875 234.171875 109.804688 233.183594 109.285156 232.132812 L 107.734375 228.984375 C 106.808594 226.839844 105.886719 224.6875 105.152344 222.476562 C 103.652344 218.058594 102.472656 213.542969 101.703125 208.964844 C 101.613281 208.550781 101.996094 208.039062 102.746094 206.234375 C 105.046875 212.214844 105.9375 217.183594 107.984375 221.789062 C 108.105469 222.050781 108.226562 222.324219 108.347656 222.589844 C 115.105469 239.269531 127 253.320312 142.070312 262.773438 L 140.6875 262.164062 Z M 100.847656 158.867188 C 100.714844 158.699219 100.578125 158.449219 100.609375 158.269531 C 100.722656 157.65625 100.8125 157.007812 101.074219 156.449219 C 103.65625 150.980469 106.808594 145.824219 110.332031 141.113281 C 111.8125 141.84375 112.007812 142.667969 111.480469 143.394531 C 107.953125 148.371094 104.828125 153.683594 102.199219 159.636719 C 101.1875 159.078125 100.96875 159.007812 100.847656 158.867188 Z M 150.925781 100.761719 L 151.101562 101.183594 C 150.390625 101.460938 149.683594 101.726562 148.996094 102.050781 L 148.8125 101.636719 C 149.5 101.3125 150.21875 101.046875 150.925781 100.761719 Z M 273.34375 190.664062 C 272.984375 191.386719 272.628906 192.066406 272.289062 192.730469 C 272.3125 192.042969 272.339844 191.355469 272.339844 190.664062 C 272.339844 143.65625 234.238281 105.554688 187.242188 105.554688 C 186.402344 105.554688 185.585938 105.59375 184.757812 105.621094 C 184.679688 105.433594 184.613281 105.261719 184.542969 105.09375 C 185.933594 104.582031 187.390625 104.6875 188.878906 104.898438 C 190.382812 105.078125 191.914062 105.222656 193.582031 104.800781 C 192.902344 103.894531 192.601562 103.144531 192.1875 103.054688 C 190.820312 102.761719 189.398438 102.707031 187.996094 102.679688 C 183.773438 102.738281 179.554688 102.972656 175.386719 103.644531 C 171.21875 104.269531 167.078125 105.167969 163.0625 106.429688 C 162.496094 106.605469 161.953125 106.875 161.429688 107.179688 C 160.644531 107.660156 160.480469 108.765625 160.820312 109.761719 C 150.21875 113.21875 140.539062 118.703125 132.222656 125.753906 C 132.375 125.59375 132.511719 125.429688 132.667969 125.277344 C 135.636719 122.425781 138.914062 119.886719 142.304688 117.5 C 144.222656 116.1875 146.09375 114.753906 148.105469 113.519531 L 147.726562 112.820312 C 144.117188 114.253906 140.636719 116.027344 137.222656 117.960938 L 136.980469 117.582031 C 143.058594 113.152344 149.742188 109.535156 156.78125 106.742188 C 155.691406 106.25 154.757812 106.371094 153.917969 106.703125 C 143.542969 111.007812 133.960938 117.238281 126.046875 125.105469 C 122.324219 128.804688 118.433594 132.132812 114.265625 135.523438 C 114.570312 134.445312 115.089844 133.523438 115.746094 132.722656 C 118.902344 129 122.609375 125.828125 125.972656 122.371094 C 128.847656 119.433594 132.125 116.890625 135.363281 114.320312 C 136.179688 113.679688 137.011719 113.066406 137.820312 112.410156 C 138.628906 111.753906 139.425781 111.097656 140.242188 110.449219 C 141.050781 109.785156 141.84375 109.097656 142.621094 108.363281 C 143.421875 107.675781 144.207031 106.953125 144.96875 106.183594 C 145.4375 105.730469 145.980469 105.3125 146.5625 105.035156 C 150.988281 102.699219 155.429688 100.308594 160.132812 98.367188 C 164.820312 96.402344 169.820312 95.027344 174.96875 94.855469 C 175.515625 94.839844 176.042969 94.582031 177.492188 94.222656 C 175.476562 94.0625 173.664062 94.304688 171.980469 94.441406 C 170.296875 94.621094 168.71875 94.621094 167.0625 93.949219 C 172.492188 92.636719 178.050781 91.773438 183.644531 91.367188 C 182.363281 90.988281 181.078125 90.882812 179.808594 90.875 C 178.542969 90.882812 177.273438 90.929688 176.027344 91.15625 C 161.863281 93.140625 148.171875 98.207031 136.363281 105.949219 C 131.613281 109.082031 127.351562 112.878906 123.511719 116.957031 C 122.90625 117.605469 122.316406 118.292969 121.824219 119.054688 C 121.34375 119.820312 120.933594 120.625 120.632812 121.449219 C 119.339844 124.96875 117.054688 127.398438 114.464844 129.808594 C 113.648438 130.542969 112.878906 131.320312 112.085938 132.074219 C 111.300781 132.84375 110.515625 133.621094 109.84375 134.492188 C 106.753906 138.226562 104.003906 142.261719 101.535156 146.480469 C 100.273438 148.582031 99.1875 150.769531 98.078125 152.96875 C 97.082031 155.203125 96.054688 157.445312 95.230469 159.765625 C 94.363281 161.945312 93.8125 164.242188 93.246094 166.523438 C 92.800781 168.824219 92.332031 171.128906 92.042969 173.453125 L 91.734375 175.773438 C 91.652344 176.550781 91.605469 177.328125 91.554688 178.105469 C 91.441406 179.652344 91.34375 181.207031 91.34375 182.757812 C 91.175781 187.628906 91.46875 192.484375 92.066406 197.269531 C 92.625 202.066406 93.644531 206.792969 94.945312 211.40625 C 95.066406 211.828125 95.230469 212.226562 95.359375 212.644531 C 96.777344 216.992188 98.5 221.207031 100.554688 225.238281 C 102.570312 229.277344 104.828125 233.160156 107.3125 236.875 C 112.425781 244.683594 118.390625 251.96875 125.570312 257.8125 C 130.601562 261.914062 136.324219 265.078125 142.207031 267.464844 C 147.792969 269.699219 151.78125 273.519531 156.523438 278.019531 C 155.195312 277.597656 154.03125 277.070312 152.882812 276.632812 C 152.308594 276.40625 151.757812 276.1875 151.207031 275.96875 C 150.65625 275.734375 150.121094 275.507812 149.582031 275.28125 C 148.214844 274.722656 146.8125 274.011719 145.386719 273.890625 C 142.652344 273.738281 140.378906 272.507812 138.160156 271.148438 C 132.109375 267.3125 126.523438 262.789062 121.484375 257.738281 C 121.296875 257.542969 120.972656 257.488281 120.292969 257.113281 C 121.183594 258.125 121.847656 258.683594 122.332031 259.382812 C 122.738281 259.957031 123.8125 260.367188 122.703125 261.816406 C 114.933594 254.394531 108.476562 245.746094 103.316406 236.421875 C 98.214844 227.050781 94.292969 217.070312 91.5 206.582031 C 91.605469 207.683594 91.757812 208.792969 91.9375 209.886719 C 92.128906 210.984375 92.398438 212.070312 92.640625 213.15625 C 95.902344 227.472656 102.503906 241.066406 111.828125 252.4375 C 116.503906 258.109375 121.886719 263.191406 127.796875 267.523438 C 130.734375 269.707031 133.863281 271.640625 137.042969 273.429688 C 138.671875 274.261719 140.273438 275.136719 141.933594 275.890625 C 143.601562 276.617188 145.25 277.402344 146.964844 278.003906 C 151.402344 279.75 155.972656 281.101562 160.578125 282.136719 C 165.175781 283.207031 169.859375 283.820312 174.523438 284.078125 C 180.367188 284.386719 186.242188 284.0625 191.839844 282.769531 C 196.511719 281.660156 201.035156 280.285156 205.429688 278.730469 C 209.816406 277.128906 214.070312 275.332031 218.246094 273.429688 C 224.527344 270.507812 230.425781 266.9375 235.945312 262.933594 C 237.128906 262.011719 238.496094 261.324219 239.820312 260.5625 C 241.101562 259.753906 242.410156 258.953125 243.40625 257.835938 C 247.511719 253.277344 252.4375 249.863281 256.695312 245.421875 C 255.652344 247.0625 254.453125 248.585938 253.265625 250.132812 C 252.664062 250.898438 252.011719 251.613281 251.371094 252.355469 C 250.738281 253.085938 250.089844 253.820312 249.394531 254.5 C 248.691406 255.210938 247.9375 255.882812 247.171875 256.554688 C 246.371094 257.1875 245.566406 257.835938 244.726562 258.5 C 243.925781 259.1875 243.066406 259.859375 242.226562 260.628906 C 241.390625 261.402344 240.574219 262.269531 239.726562 263.207031 C 241.457031 263.441406 242.417969 263.816406 242.960938 263.507812 C 244.523438 262.632812 246.167969 261.800781 247.679688 260.796875 C 248.441406 260.304688 249.203125 259.808594 249.914062 259.25 C 250.625 258.675781 251.296875 258.078125 251.929688 257.4375 C 259.097656 250.074219 264.859375 241.40625 268.753906 232.058594 C 270.550781 227.792969 271.964844 223.382812 272.921875 218.894531 C 273.894531 214.425781 274.582031 209.925781 274.855469 205.417969 C 274.960938 204.398438 274.992188 203.378906 275.019531 202.351562 C 275.050781 201.332031 275.121094 200.320312 275.121094 199.300781 C 275.074219 197.261719 275.097656 195.238281 274.878906 193.222656 C 274.816406 192.589844 274.183594 191.992188 273.34375 190.664062 " fill-opacity="1" fill-rule="nonzero"/></g><path fill="#000000" d="M 258.273438 127.40625 C 257.179688 126.132812 255.976562 124.953125 254.828125 123.722656 L 255.140625 123.40625 C 256.292969 124.644531 257.503906 125.820312 258.605469 127.105469 Z M 283.847656 178.949219 C 283.449219 174.035156 282.550781 169.15625 281.296875 164.371094 C 280.699219 161.960938 279.914062 159.613281 279.128906 157.265625 C 278.246094 154.953125 277.386719 152.628906 276.320312 150.394531 C 270.632812 137.902344 262.246094 126.605469 251.726562 117.894531 C 244.554688 111.890625 236.300781 106.945312 227.300781 104.816406 C 220.878906 103.296875 214.785156 101.476562 208.503906 99.988281 C 202.613281 98.585938 196.558594 98.027344 190.554688 97.9375 C 191.613281 98.125 192.667969 98.304688 193.71875 98.496094 C 194.769531 98.675781 195.820312 98.804688 196.867188 98.949219 C 198.960938 99.316406 201.066406 99.515625 203.152344 99.914062 C 207.757812 100.660156 212.316406 101.742188 216.742188 103.257812 C 217.542969 103.53125 218.34375 103.832031 218.96875 104.347656 C 219.589844 104.875 220.050781 105.609375 220.199219 106.6875 C 220.496094 108.839844 222.058594 109.203125 223.695312 109.746094 C 227.011719 110.734375 230.417969 111.882812 233.257812 113.859375 C 239.296875 118.195312 244.671875 123.105469 250.261719 127.898438 C 251.929688 129.386719 253.304688 131.199219 254.640625 132.988281 C 256.527344 135.402344 258.160156 137.996094 259.828125 140.53125 C 260.207031 141.074219 261.035156 141.324219 261.632812 141.738281 C 260.75 138.597656 259.035156 136.082031 257.1875 133.710938 C 256.152344 132.414062 255.050781 131.175781 253.960938 129.921875 C 252.804688 128.730469 251.695312 127.5 250.503906 126.34375 C 248.285156 124.160156 245.972656 122.070312 243.570312 120.082031 C 242.347656 119.0625 240.988281 118.203125 239.675781 117.296875 C 239.03125 116.835938 238.414062 116.335938 237.847656 115.765625 C 237.265625 115.210938 236.730469 114.59375 236.277344 113.851562 C 240.945312 115.996094 245.496094 118.535156 249.769531 121.570312 C 254.023438 124.613281 257.992188 128.132812 261.488281 132.113281 C 264.917969 136.039062 267.929688 140.363281 270.429688 144.972656 C 272.929688 149.578125 274.984375 154.425781 276.652344 159.378906 C 277.050781 160.648438 277.476562 161.910156 277.761719 163.199219 C 278.058594 164.5 278.320312 165.789062 278.5625 167.089844 C 278.75 168.394531 278.917969 169.707031 279.078125 171.015625 C 279.234375 172.3125 279.273438 173.636719 279.371094 174.941406 C 279.648438 180.175781 279.523438 185.324219 279.53125 190.445312 C 281.660156 191.054688 282.84375 190.339844 283.101562 188.878906 C 283.371094 187.257812 283.699219 185.609375 283.804688 183.949219 C 283.945312 182.28125 284.039062 180.605469 283.847656 178.949219 " fill-opacity="1" fill-rule="nonzero"/><path fill="#000000" d="M 228.121094 100.398438 C 223.796875 97.753906 219.445312 95.21875 213.660156 94.222656 C 214.847656 95.148438 215.132812 95.550781 215.527344 95.664062 C 219.816406 96.992188 224.050781 98.511719 228.121094 100.398438 " fill-opacity="1" fill-rule="nonzero"/><path fill="#000000" d="M 173.574219 100.238281 C 172.804688 100.351562 172.03125 100.503906 171.261719 100.632812 L 171.34375 101.101562 C 172.09375 100.972656 172.839844 100.828125 173.589844 100.714844 L 175.847656 100.429688 L 178.097656 100.148438 L 180.363281 99.976562 L 180.542969 99.484375 L 178.21875 99.664062 C 177.4375 99.734375 176.667969 99.855469 175.890625 99.945312 L 173.574219 100.238281 " fill-opacity="1" fill-rule="nonzero"/><path fill="#000000" d="M 199.320312 103.023438 C 198.90625 103.0625 198.507812 103.183594 198.097656 103.273438 C 198.605469 103.335938 199.117188 103.402344 199.746094 103.484375 C 199.535156 103.246094 199.421875 103.011719 199.320312 103.023438 " fill-opacity="1" fill-rule="nonzero"/><path fill="#000000" d="M 198.453125 105.628906 C 198.507812 105.78125 198.550781 106.054688 198.628906 106.0625 C 198.953125 106.089844 199.292969 106.039062 199.625 106.023438 C 199.5625 105.871094 199.519531 105.617188 199.441406 105.601562 C 199.117188 105.570312 198.777344 105.617188 198.453125 105.628906 " fill-opacity="1" fill-rule="nonzero"/><path fill="#000000" d="M 208.148438 104.964844 L 208.601562 104.988281 L 208.300781 104.679688 Z M 208.148438 104.964844 " fill-opacity="1" fill-rule="nonzero"/><g fill="#ffffff" fill-opacity="1"><g transform="translate(119.529798, 186.737155)"><g><path d="M 29.0625 -2.4375 C 29.0625 -2.082031 29 -1.753906 28.875 -1.453125 C 28.75 -1.160156 28.578125 -0.90625 28.359375 -0.6875 C 28.140625 -0.476562 27.878906 -0.3125 27.578125 -0.1875 C 27.285156 -0.0625 26.96875 0 26.625 0 L 9.21875 0 C 8.769531 0 8.289062 -0.0507812 7.78125 -0.15625 C 7.269531 -0.257812 6.765625 -0.421875 6.265625 -0.640625 C 5.765625 -0.867188 5.285156 -1.160156 4.828125 -1.515625 C 4.367188 -1.867188 3.960938 -2.296875 3.609375 -2.796875 C 3.253906 -3.296875 2.972656 -3.875 2.765625 -4.53125 C 2.554688 -5.195312 2.453125 -5.941406 2.453125 -6.765625 L 2.453125 -19.828125 C 2.453125 -20.273438 2.503906 -20.753906 2.609375 -21.265625 C 2.710938 -21.785156 2.875 -22.296875 3.09375 -22.796875 C 3.320312 -23.296875 3.613281 -23.773438 3.96875 -24.234375 C 4.332031 -24.691406 4.765625 -25.097656 5.265625 -25.453125 C 5.765625 -25.804688 6.34375 -26.085938 7 -26.296875 C 7.65625 -26.503906 8.394531 -26.609375 9.21875 -26.609375 L 28.828125 -26.609375 L 28.828125 -21.78125 L 9.21875 -21.78125 C 8.59375 -21.78125 8.113281 -21.613281 7.78125 -21.28125 C 7.445312 -20.945312 7.28125 -20.453125 7.28125 -19.796875 L 7.28125 -6.765625 C 7.28125 -6.148438 7.445312 -5.671875 7.78125 -5.328125 C 8.125 -4.992188 8.601562 -4.828125 9.21875 -4.828125 L 24.234375 -4.828125 L 24.234375 -10.875 L 11.390625 -10.875 L 11.390625 -15.734375 L 26.625 -15.734375 C 26.96875 -15.734375 27.285156 -15.664062 27.578125 -15.53125 C 27.878906 -15.40625 28.140625 -15.226562 28.359375 -15 C 28.578125 -14.78125 28.75 -14.523438 28.875 -14.234375 C 29 -13.953125 29.0625 -13.640625 29.0625 -13.296875 Z M 29.0625 -2.4375 "/></g></g></g><g fill="#ffffff" fill-opacity="1"><g transform="translate(154.606566, 186.737155)"><g><path d="M 28.875 -2.4375 C 28.875 -2.082031 28.8125 -1.753906 28.6875 -1.453125 C 28.5625 -1.160156 28.382812 -0.90625 28.15625 -0.6875 C 27.9375 -0.476562 27.675781 -0.3125 27.375 -0.1875 C 27.082031 -0.0625 26.769531 0 26.4375 0 L 15.5625 0 C 14.539062 0 13.503906 -0.109375 12.453125 -0.328125 C 11.398438 -0.554688 10.378906 -0.898438 9.390625 -1.359375 C 8.410156 -1.828125 7.488281 -2.421875 6.625 -3.140625 C 5.757812 -3.859375 5 -4.707031 4.34375 -5.6875 C 3.695312 -6.664062 3.1875 -7.789062 2.8125 -9.0625 C 2.445312 -10.332031 2.265625 -11.742188 2.265625 -13.296875 L 2.265625 -26.609375 L 7.09375 -26.609375 L 7.09375 -13.296875 C 7.09375 -11.941406 7.28125 -10.789062 7.65625 -9.84375 C 8.03125 -8.90625 8.507812 -8.117188 9.09375 -7.484375 C 9.675781 -6.859375 10.3125 -6.363281 11 -6 C 11.695312 -5.644531 12.359375 -5.378906 12.984375 -5.203125 C 13.609375 -5.035156 14.15625 -4.929688 14.625 -4.890625 C 15.101562 -4.847656 15.414062 -4.828125 15.5625 -4.828125 L 24.046875 -4.828125 L 24.046875 -26.609375 L 28.875 -26.609375 Z M 28.875 -2.4375 "/></g></g></g><g fill="#ffffff" fill-opacity="1"><g transform="translate(190.072903, 186.737155)"><g><path d="M 14.953125 -17.109375 L 23.078125 -26.609375 L 29.671875 -26.609375 L 18.21875 -13.265625 L 29.59375 0 L 23.046875 0 L 14.953125 -9.421875 L 6.90625 0 L 0.328125 0 L 11.6875 -13.265625 L 0.296875 -26.609375 L 6.828125 -26.609375 Z M 14.953125 -17.109375 "/></g></g></g><g fill="#ffffff" fill-opacity="1"><g transform="translate(223.776907, 186.737155)"><g><path d="M 28.875 -2.4375 C 28.875 -2.082031 28.8125 -1.753906 28.6875 -1.453125 C 28.5625 -1.160156 28.382812 -0.90625 28.15625 -0.6875 C 27.9375 -0.476562 27.675781 -0.3125 27.375 -0.1875 C 27.082031 -0.0625 26.769531 0 26.4375 0 L 15.5625 0 C 14.539062 0 13.503906 -0.109375 12.453125 -0.328125 C 11.398438 -0.554688 10.378906 -0.898438 9.390625 -1.359375 C 8.410156 -1.828125 7.488281 -2.421875 6.625 -3.140625 C 5.757812 -3.859375 5 -4.707031 4.34375 -5.6875 C 3.695312 -6.664062 3.1875 -7.789062 2.8125 -9.0625 C 2.445312 -10.332031 2.265625 -11.742188 2.265625 -13.296875 L 2.265625 -26.609375 L 7.09375 -26.609375 L 7.09375 -13.296875 C 7.09375 -11.941406 7.28125 -10.789062 7.65625 -9.84375 C 8.03125 -8.90625 8.507812 -8.117188 9.09375 -7.484375 C 9.675781 -6.859375 10.3125 -6.363281 11 -6 C 11.695312 -5.644531 12.359375 -5.378906 12.984375 -5.203125 C 13.609375 -5.035156 14.15625 -4.929688 14.625 -4.890625 C 15.101562 -4.847656 15.414062 -4.828125 15.5625 -4.828125 L 24.046875 -4.828125 L 24.046875 -26.609375 L 28.875 -26.609375 Z M 28.875 -2.4375 "/></g></g></g><g fill="#ffffff" fill-opacity="1"><g transform="translate(157.589424, 219.612818)"><g><path d="M 4.09375 -4.4375 C 2.96875 -4.757812 2.144531 -5.15625 1.625 -5.625 C 1.113281 -6.101562 0.859375 -6.6875 0.859375 -7.375 C 0.859375 -8.15625 1.171875 -8.800781 1.796875 -9.3125 C 2.421875 -9.832031 3.238281 -10.09375 4.25 -10.09375 C 4.925781 -10.09375 5.53125 -9.957031 6.0625 -9.6875 C 6.601562 -9.425781 7.019531 -9.0625 7.3125 -8.59375 C 7.613281 -8.132812 7.765625 -7.628906 7.765625 -7.078125 L 6.4375 -7.078125 C 6.4375 -7.679688 6.242188 -8.15625 5.859375 -8.5 C 5.484375 -8.84375 4.945312 -9.015625 4.25 -9.015625 C 3.601562 -9.015625 3.097656 -8.867188 2.734375 -8.578125 C 2.367188 -8.296875 2.1875 -7.898438 2.1875 -7.390625 C 2.1875 -6.984375 2.359375 -6.640625 2.703125 -6.359375 C 3.046875 -6.085938 3.628906 -5.832031 4.453125 -5.59375 C 5.285156 -5.363281 5.9375 -5.109375 6.40625 -4.828125 C 6.875 -4.546875 7.21875 -4.21875 7.4375 -3.84375 C 7.664062 -3.46875 7.78125 -3.03125 7.78125 -2.53125 C 7.78125 -1.71875 7.460938 -1.066406 6.828125 -0.578125 C 6.203125 -0.0976562 5.363281 0.140625 4.3125 0.140625 C 3.625 0.140625 2.984375 0.0078125 2.390625 -0.25 C 1.804688 -0.519531 1.351562 -0.878906 1.03125 -1.328125 C 0.707031 -1.785156 0.546875 -2.304688 0.546875 -2.890625 L 1.859375 -2.890625 C 1.859375 -2.285156 2.082031 -1.804688 2.53125 -1.453125 C 2.976562 -1.109375 3.570312 -0.9375 4.3125 -0.9375 C 5.007812 -0.9375 5.539062 -1.078125 5.90625 -1.359375 C 6.269531 -1.640625 6.453125 -2.023438 6.453125 -2.515625 C 6.453125 -3.003906 6.28125 -3.378906 5.9375 -3.640625 C 5.601562 -3.910156 4.988281 -4.175781 4.09375 -4.4375 Z M 4.09375 -4.4375 "/></g></g></g><g fill="#ffffff" fill-opacity="1"><g transform="translate(167.528445, 219.612818)"><g><path d="M 2.46875 -3.890625 L 2.46875 0 L 1.15625 0 L 1.15625 -9.953125 L 4.828125 -9.953125 C 5.910156 -9.953125 6.757812 -9.671875 7.375 -9.109375 C 8 -8.554688 8.3125 -7.820312 8.3125 -6.90625 C 8.3125 -5.945312 8.007812 -5.203125 7.40625 -4.671875 C 6.800781 -4.148438 5.9375 -3.890625 4.8125 -3.890625 Z M 2.46875 -4.96875 L 4.828125 -4.96875 C 5.523438 -4.96875 6.0625 -5.132812 6.4375 -5.46875 C 6.8125 -5.800781 7 -6.273438 7 -6.890625 C 7 -7.484375 6.8125 -7.957031 6.4375 -8.3125 C 6.0625 -8.675781 5.550781 -8.863281 4.90625 -8.875 L 2.46875 -8.875 Z M 2.46875 -4.96875 "/></g></g></g><g fill="#ffffff" fill-opacity="1"><g transform="translate(177.99354, 219.612818)"><g><path d="M 8.8125 0 L 7.484375 0 L 7.484375 -4.59375 L 2.46875 -4.59375 L 2.46875 0 L 1.15625 0 L 1.15625 -9.953125 L 2.46875 -9.953125 L 2.46875 -5.671875 L 7.484375 -5.671875 L 7.484375 -9.953125 L 8.8125 -9.953125 Z M 8.8125 0 "/></g></g></g><g fill="#ffffff" fill-opacity="1"><g transform="translate(189.606432, 219.612818)"><g><path d="M 6.78125 -4.59375 L 2.46875 -4.59375 L 2.46875 -1.078125 L 7.484375 -1.078125 L 7.484375 0 L 1.15625 0 L 1.15625 -9.953125 L 7.40625 -9.953125 L 7.40625 -8.875 L 2.46875 -8.875 L 2.46875 -5.671875 L 6.78125 -5.671875 Z M 6.78125 -4.59375 "/></g></g></g><g fill="#ffffff" fill-opacity="1"><g transform="translate(199.197015, 219.612818)"><g><path d="M 4.8125 -4.03125 L 2.46875 -4.03125 L 2.46875 0 L 1.15625 0 L 1.15625 -9.953125 L 4.4375 -9.953125 C 5.5625 -9.953125 6.425781 -9.695312 7.03125 -9.1875 C 7.632812 -8.675781 7.9375 -7.929688 7.9375 -6.953125 C 7.9375 -6.335938 7.769531 -5.800781 7.4375 -5.34375 C 7.101562 -4.882812 6.632812 -4.539062 6.03125 -4.3125 L 8.375 -0.078125 L 8.375 0 L 6.96875 0 Z M 2.46875 -5.09375 L 4.484375 -5.09375 C 5.140625 -5.09375 5.660156 -5.257812 6.046875 -5.59375 C 6.429688 -5.9375 6.625 -6.390625 6.625 -6.953125 C 6.625 -7.566406 6.4375 -8.035156 6.0625 -8.359375 C 5.695312 -8.691406 5.171875 -8.863281 4.484375 -8.875 L 2.46875 -8.875 Z M 2.46875 -5.09375 "/></g></g></g><g fill="#ffffff" fill-opacity="1"><g transform="translate(209.450314, 219.612818)"><g><path d="M 6.78125 -4.59375 L 2.46875 -4.59375 L 2.46875 -1.078125 L 7.484375 -1.078125 L 7.484375 0 L 1.15625 0 L 1.15625 -9.953125 L 7.40625 -9.953125 L 7.40625 -8.875 L 2.46875 -8.875 L 2.46875 -5.671875 L 6.78125 -5.671875 Z M 6.78125 -4.59375 "/></g></g></g></svg>